#!OML:ASF X:\für Bonn\!DataBase\2005_08_12_Daniel\c3d\Daniel.ASF
:FULLY-SPECIFIED
:DEGREES
32
root -0.803395 17.4122 0.256847 166.772 -3.23406 -178.285
lowerback 22.2498 -0.0335252 0.757777
upperback 7.44357 -1.45674 -1.61124
thorax -4.33909 -1.32276 -1.7463
lowerneck 6.20482 0.129631 -6.48519
upperneck 16.2097 -1.9315 1.56021
head 4.36197 -1.94825 1.5798
rclavicle -6.95746e-015 -3.18055e-015
rhumerus 142.406 -193.524 -279.157
rradius 82.1316
rwrist -49.2775
rhand -13.3578 15.0516
rfingers 7.12502
rthumb 12.7482 -14.5392
lclavicle -6.95746e-015 -3.18055e-015
lhumerus -28.1022 11.1359 84.3094
lradius 45.2799
lwrist -4.83826
lhand -12.8399 -9.14426
lfingers 7.12502
lthumb 13.2475 20.4148
rfemur -2.41665 -1.87147 16.6193
rtibia 31.4429
rfoot -14.3615 -2.19225
rtoes -9.69474
lfemur -5.53457 -12.8567 -21.3059
ltibia 38.6936
lfoot -19.2764 -1.15849
ltoes -8.95611
33
root -0.789518 17.4035 0.257459 166.709 -3.40006 -178.285
lowerback 22.866 0.0419996 0.795465
upperback 7.64184 -1.42808 -1.61841
thorax -4.43338 -1.3403 -1.7743
lowerneck 6.39219 0.0395621 -6.43894
upperneck 16.0474 -2.07139 1.75708
head 4.2766 -1.99648 1.63829
rclavicle 1.45113e-014 3.97569e-015
rhumerus 142.813 -193.463 -279.009
rradius 81.4513
rwrist -48.9005
rhand -13.6463 14.7482
rfingers 7.12502
rthumb 12.4702 -14.8597
lclavicle 1.45113e-014 3.97569e-015
lhumerus -27.8876 10.8704 84.734
lradius 46.2628
lwrist -4.51522
lhand -12.9409 -9.30516
lfingers 7.12502
lthumb 13.1502 20.2602
rfemur -2.22345 -1.72681 16.7037
rtibia 31.1549
rfoot -14.5731 -2.65987
rtoes -9.75482
lfemur -5.58542 -12.8319 -21.2328
ltibia 38.8273
lfoot -19.3036 -1.46006
ltoes -8.58442
34
root -0.77435 17.3971 0.259765 166.682 -3.55458 -178.267
lowerback 23.4466 0.120906 0.880627
upperback 7.86513 -1.39065 -1.63367
thorax -4.48019 -1.35529 -1.84193
lowerneck 6.55266 -0.0620261 -6.37218
upperneck 15.8486 -2.21484 1.96474
head 4.18357 -2.04108 1.69696
rclavicle 9.54166e-015 -1.19271e-014
rhumerus 143.311 -193.355 -278.838
rradius 80.6854
rwrist -48.4157
rhand -13.8892 14.4641
rfingers 7.12502
rthumb 12.2359 -15.158
lclavicle 9.54166e-015 -1.19271e-014
lhumerus -27.6218 10.6234 85.1618
lradius 47.216
lwrist -4.20183
lhand -13.0443 -9.3818
lfingers 7.12502
lthumb 13.0505 20.1899
rfemur -2.09408 -1.58228 16.8212
rtibia 30.9691
rfoot -14.8101 -3.09913
rtoes -9.87351
lfemur -5.68642 -12.7492 -21.113
ltibia 38.9584
lfoot -19.333 -1.79416
ltoes -8.44118
35
root -0.758795 17.3943 0.265173 166.737 -3.70352 -178.27
lowerback 23.9782 0.2063 0.972124
upperback 8.07529 -1.34005 -1.66428
thorax -4.51408 -1.36186 -1.93469
lowerneck 6.71441 -0.18427 -6.28771
upperneck 15.6327 -2.38081 2.16482
head 4.08545 -2.0953 1.74964
rclavicle 1.35174e-014 3.4191e-014
rhumerus 143.817 -193.225 -278.658
rradius 79.9003
rwrist -47.8552
rhand -14.1121 14.227
rfingers 7.12502
rthumb 12.021 -15.4077
lclavicle 1.35174e-014 3.4191e-014
lhumerus -27.3485 10.3724 85.5791
lradius 48.1443
lwrist -3.90509
lhand -13.0866 -9.42323
lfingers 7.12502
lthumb 13.0098 20.1511
rfemur -2.11782 -1.50625 16.9069
rtibia 30.8634
rfoot -14.9902 -3.51454
rtoes -10.3225
lfemur -5.88051 -12.6952 -20.9959
ltibia 39.0866
lfoot -19.3487 -2.11293
ltoes -8.23835
36
root -0.743213 17.3919 0.272348 166.843 -3.85203 -178.257
lowerback 24.5003 0.283092 1.07552
upperback 8.25982 -1.29077 -1.68099
thorax -4.56874 -1.36678 -2.01948
lowerneck 6.9154 -0.297676 -6.207
upperneck 15.3796 -2.53426 2.36652
head 3.96687 -2.14346 1.80409
rclavicle 2.68359e-014 3.10104e-014
rhumerus 144.317 -193.112 -278.465
rradius 79.0513
rwrist -47.2226
rhand -14.3263 14.0301
rfingers 7.12502
rthumb 11.8144 -15.6166
lclavicle 2.68359e-014 3.10104e-014
lhumerus -27.1185 10.1213 86.0006
lradius 49.0786
lwrist -3.52271
lhand -13.0946 -9.37896
lfingers 7.12502
lthumb 13.002 20.1959
rfemur -2.20632 -1.43724 17.0114
rtibia 30.809
rfoot -15.1865 -3.89193
rtoes -10.5841
lfemur -6.15011 -12.6471 -20.8465
ltibia 39.2187
lfoot -19.3278 -2.43173
ltoes -7.8652
37
root -0.727259 17.3881 0.282001 166.949 -3.99676 -178.241
lowerback 25.0586 0.349692 1.17416
upperback 8.4594 -1.26272 -1.69385
thorax -4.6231 -1.38517 -2.09164
lowerneck 7.00105 -0.407182 -6.0885
upperneck 15.1509 -2.66139 2.52418
head 3.87598 -2.17623 1.83649
rclavicle 1.15295e-014 3.73715e-014
rhumerus 144.868 -193.064 -278.273
rradius 78.1103
rwrist -46.4702
rhand -14.5414 13.9133
rfingers 7.12502
rthumb 11.607 -15.7452
lclavicle 1.15295e-014 3.73715e-014
lhumerus -26.8765 9.93911 86.3958
lradius 49.9639
lwrist -3.19788
lhand -13.0614 -9.34698
lfingers 7.12502
lthumb 13.034 20.2258
rfemur -2.28821 -1.39826 17.1022
rtibia 30.7868
rfoot -15.3998 -4.18917
rtoes -10.7911
lfemur -6.43702 -12.5744 -20.6899
ltibia 39.3582
lfoot -19.314 -2.75588
ltoes -7.71487
38
root -0.711416 17.3859 0.293439 167.092 -4.13871 -178.191
lowerback 25.6367 0.412784 1.27406
upperback 8.65614 -1.23693 -1.66593
thorax -4.68684 -1.40566 -2.11957
lowerneck 6.85091 -0.541997 -5.92646
upperneck 15.0195 -2.79256 2.60035
head 3.86114 -2.20926 1.83159
rclavicle 7.95139e-016 -2.46493e-014
rhumerus 145.471 -193.074 -278.044
rradius 77.1258
rwrist -45.7776
rhand -14.7261 13.9172
rfingers 7.12502
rthumb 11.4289 -15.7513
lclavicle 7.95139e-016 -2.46493e-014
lhumerus -26.6402 9.83164 86.8305
lradius 50.87
lwrist -2.9227
lhand -12.9745 -9.20094
lfingers 7.12502
lthumb 13.1177 20.3665
rfemur -2.39356 -1.41504 17.2259
rtibia 30.739
rfoot -15.5897 -4.43949
rtoes -11.0976
lfemur -6.77582 -12.4953 -20.4892
ltibia 39.4996
lfoot -19.2761 -3.0625
ltoes -7.58035
39
root -0.695293 17.3824 0.306761 167.237 -4.2958 -178.173
lowerback 26.2612 0.465001 1.36791
upperback 8.84307 -1.22978 -1.66081
thorax -4.78251 -1.43616 -2.16286
lowerneck 6.68838 -0.676146 -5.75525
upperneck 14.8856 -2.92145 2.67609
head 3.8473 -2.24061 1.82469
rclavicle 1.27222e-014 3.18055e-015
rhumerus 146.063 -193.119 -277.835
rradius 76.098
rwrist -45.1329
rhand -14.9374 13.9873
rfingers 7.12502
rthumb 11.2252 -15.6924
lclavicle 1.27222e-014 3.18055e-015
lhumerus -26.3995 9.71959 87.2181
lradius 51.6812
lwrist -2.62472
lhand -12.9171 -9.07428
lfingers 7.12502
lthumb 13.1731 20.4896
rfemur -2.51509 -1.43351 17.313
rtibia 30.69
rfoot -15.7612 -4.66663
rtoes -11.2374
lfemur -7.12578 -12.4511 -20.332
ltibia 39.6428
lfoot -19.2418 -3.34911
ltoes -7.50161
